<svg version="1" xmlns="http://www.w3.org/2000/svg" width="7680" height="7680" viewBox="0 0 5760.000000 5760.000000"><path d="M811 1227.6c-55.3 6.8-98.1 44.9-112.5 100.1-6.6 25.3-7.5 41.6-8.1 141.8-.3 47.3-.7 87-1 88.3-.3 1.3-1.8 2.9-3.7 3.8-3.2 1.6-3.6 1.5-33.2-9.4-42.8-15.7-57.6-19.6-78-20.8-38.1-2.3-75.2 15.7-100.1 48.6-7.2 9.4-17.9 30.3-21.8 42.3-4.3 13.2-6.7 28-7.6 47.7-.5 10.2-.9 59.5-1 109.7v91.2l-2.2 2.1c-1.2 1.1-3.3 2-4.7 2-1.6 0-9.2-4.5-20.5-12.1-25-16.8-40.9-24.1-62.6-28.6-11.9-2.5-37.3-2.4-49 .1-34.5 7.4-62.2 26.5-81.2 56.1-12.6 19.5-20.5 42.3-25.4 73.5-2.9 17.9-3.3 212.8-3.2 1387.3l.1 1155.8 2.7 2.9c2.6 2.8 3.3 3 10.3 3 5.7 0 8-.4 9.5-1.7l2.1-1.8.5-1270c.3-883.6.8-1272.3 1.5-1277.5 2.5-17.5 5.9-28.8 12.9-42.5 12.3-23.8 34.5-44.7 58.4-54.7 37.5-15.8 81.2-6.8 111.6 23 20.3 20 31.6 44.2 36.8 79.2 1.6 10.4 1.8 27.1 2.1 181.7.4 168.9.4 170.2 2.4 172.7 1.8 2.3 2.8 2.6 7.9 2.6 8.7 0 10.1-1.6 11.3-12.6.5-5 1.2-146.1 1.6-324.4.8-335.1.5-320.4 5.6-341.7 11.9-50.1 49.7-85.6 96.7-91.3 36.6-4.3 75.6 15.3 98.4 49.6 9.3 14 15.6 28.9 19.7 46.6l2.1 9.3.6 316.5.5 316.5 3.3 14.5c2.6 12.1 3.6 14.9 5.7 16.7 1.5 1.3 3.7 2.3 5.1 2.3 3.2 0 8-2.5 8.8-4.5.3-.9.6-209.6.6-463.8 0-292.8.4-467.5 1-476.6 1.6-23.9 5.6-42.2 13-59.9 15.8-37.9 43.4-62.1 79-69.4 13.6-2.8 33.8-2.1 46.3 1.6 11.6 3.5 19.8 7.3 28.9 13.4 30.2 20.4 50.2 59.1 54.8 106.1.7 6.8 1 164.7 1 461.3 0 466.7.1 482.4 3.9 487.8 2.2 3 6 4.5 9.2 3.6 5.3-1.4 6-2.9 8.7-17.3l2.5-13.8.7-317c.7-350.6.1-321.5 7-342.5 6.2-18.6 15.7-33.8 30.4-48.6 14.6-14.6 30.5-24.2 49.1-29.6 7.1-2 10.1-2.3 25.5-2.2 16.1 0 18.2.2 26.5 2.8 5 1.5 12.6 4.4 17 6.6 8.8 4.2 22.2 13.5 21.7 15.1-.1.6.2.8.7.5 1.3-.9 16 14.9 21.3 22.9 10.3 15.7 17.3 33.8 20.9 54.1 3.4 19.2 3.8 57.7 3.8 356.5.1 257 .4 295.2 2.7 305.7 1.3 6.2 9.3 8.4 13.9 3.7 1.4-1.3 2.5-3 2.6-3.7 0-.7.5-4.5 1.1-8.3.6-4.5 1.3-64 1.7-166.5.6-114.6 1.1-162.5 2-170 2.8-23.6 7.5-41.2 15.2-56 15.2-29.1 39.9-49.3 70.9-57.8 8.2-2.2 11.5-2.6 24.5-2.6 16.7-.1 23.7 1.2 38 6.9 20.9 8.4 39.1 23.5 51.9 42.9 10.8 16.4 16 30.8 19.7 54.4 1.9 12.4 2.2 19.9 2.9 78.2.5 35.5.9 154.5.9 264.6l.1 200.1 2.3 2.1c1.9 1.8 3.5 2.2 8.8 2.2 5.6 0 6.9-.4 8.7-2.3l2.2-2.4-.2-273.9-.3-273.9-2.2-11.1c-5.2-25.6-12.6-42.5-26.9-61-19.1-24.7-50.6-43.8-83.9-51-10.9-2.3-34.1-2.3-45 0-11.4 2.5-21.5 6.1-32.9 11.8-10.9 5.4-14.8 7.9-27.5 17.5-9.4 7.2-18.8 12.3-22.5 12.3-1.5 0-3.3-1.1-4.6-2.7l-2.2-2.8.3-100c.2-107.8.2-108.5-5.2-133.4-5.8-26.5-19.9-52.7-36.9-68.4-5.6-5.2-21.3-17.7-22.3-17.7-.2 0-3.9-2-8.3-4.5-25.7-14.7-55.1-19.8-82.6-14.5-23.2 4.5-47.4 16.3-72.2 35.2-9.6 7.3-13.1 8.3-16.5 4.9-1.8-1.8-1.9-5.5-2.5-81.7-.9-103.7-2.1-129.2-7.7-158.2-10.2-52.9-48-91-101.2-101.8-7.1-1.4-35.8-2.6-42.7-1.8zM5024 2632.1c-91.5 4.3-170.5 22.6-234.3 54.1-16.1 7.9-25.6 13.4-42.2 24.5-22.3 14.8-33.5 24.1-51.8 42.8-45.3 46.1-74.9 105.5-84.4 169-2.5 16.9-2.5 63.8 0 81 8.2 56.1 27.9 102 62.2 145 14.9 18.8 39.4 43.3 58.1 58.1 4.6 3.6 26 18.4 28.9 20 1.1.6 6.5 3.7 12 6.9 8.8 5.1 38.8 20.5 39.9 20.5.3 0 3.7 1.5 7.8 3.4 12.8 5.9 44.7 18.2 63.3 24.5 47.1 15.8 83.3 25.7 158 43.1 27.8 6.5 124.5 30.5 139 34.5 16 4.5 50.9 15.8 59 19.2 21.3 8.8 39.1 18.8 52 28.9 25.3 19.9 38.8 46.2 40.2 78.4 1.7 38-12.2 72.2-41.4 101.6-39 39.4-87.4 59-162.3 65.5-17.8 1.6-65.2 1.6-81 0-87.9-8.6-148.7-41.5-189.1-102.1-12.4-18.6-25.9-47.5-33.9-72.5-3.9-12.3-10.7-39.1-11.6-45.6-.6-4.2-1-4.9-2.9-4.9-1.7 0-169.1 15.2-238.8 21.7-3.7.3-6.9.9-7.1 1.2-.6 1 4 30.4 7.4 47.1 24 119.4 79 209.6 164.9 270.6 29.4 20.9 68 40.4 105.9 53.5 76.3 26.3 170 38.3 272.7 35 127.1-4.2 218.6-25.2 295.5-67.9 86.2-47.8 150.3-135.1 170.4-231.7 4.8-23.3 6.1-37.7 6.1-68.5 0-30.3-1.1-44-5.1-68.5-9.8-58.4-31-105.3-67.7-149.5-27.8-33.5-70.3-66.4-113.3-87.8-10.7-5.3-16.3-7.9-32.9-15.2-2.7-1.2-11.5-4.7-19.5-7.7-60.3-23-124.1-41.1-229-64.8-75.2-17.1-133.2-33.4-169.5-47.8-5.5-2.1-12.2-4.8-15-5.9-9.5-3.8-28.7-13.8-37.4-19.5-17.2-11.5-33.1-30.3-39-46.3-4.6-12.6-5.3-17.7-4.8-33.5.4-13.3.7-16 3.4-23.6 7.7-22.3 21.3-37.6 46.9-52.9 29.5-17.6 65.9-28.4 112.7-33.7 19.2-2.1 75-2.4 93.7-.5 38.7 4 68.1 11.7 93.2 24.3 9.5 4.8 22.7 13 25.9 16.1.8.8 3.2 2.7 5.3 4.3 5.4 4.1 19.8 20.4 25.6 29.1 14.3 21.1 25 46.5 32 75.9 1.5 6.6 3.1 13.7 3.4 15.7.8 4.6-5 4.4 57.1 1.8 88.2-3.8 191.7-8 195.2-8h3.6l-.7-10.8c-4.1-64.4-21.8-121.7-52.6-170.2-6.5-10.3-18.8-27.1-23.7-32.5-1-1.1-4.3-5-7.4-8.5-8.7-10-27.2-27.9-39.4-38-58.5-48.7-138.1-79.5-238.9-92.5-50.7-6.5-112-8.9-164.6-6.4z"/><path d="M723.5 2652.2c-.3.7-.4 267.5-.3 592.8l.3 591.5 127.3.3 127.2.2v-518h497v518l127.3-.2 127.2-.3.3-592.8.2-592.7h-255v466H978v-466H851c-100.7 0-127.2.3-127.5 1.2zM1992 3244v593h957v-201h-702v-321h631v-201h-631v-261h678v-202h-933v593zM3160.5 2652.2c-.3.7-.4 267.5-.3 592.8l.3 591.5 118.3.3 118.2.2.1-464.7v-464.8l8 29.5c8.7 32.6 9.4 35.1 23.9 89.5 5.5 20.9 12.8 47.9 16 60 3.3 12.1 13.1 49 21.9 82 15.6 58.5 31.5 118.2 46.7 175 4.2 15.4 9.6 35.6 12 45 2.5 9.3 9.7 36.3 16 60 6.4 23.6 14.5 54 18.1 67.5 3.5 13.5 7.1 26.7 7.8 29.5.8 2.7 3.2 11.7 5.4 20 3.4 12.9 14.5 54.7 45.7 171.5 3.6 13.5 8.5 31.7 10.9 40.5 2.4 8.8 6.9 25.8 10.1 37.7l5.7 21.8H3890l1-2.3c.5-1.2 7-25.2 14.4-53.2 7.4-28.1 17.4-65.4 22.1-83 4.7-17.6 15.5-57.9 24-89.5 8.4-31.6 16.3-61.1 17.5-65.5 1.2-4.4 7-26.2 13-48.5s14.3-53.3 18.5-69c15.3-57 26.8-99.9 32.1-120 8.2-30.8 8.7-32.5 16.2-60.5 6.6-24.6 36.8-137.3 39.7-148 1.2-4.5 16.1-60.3 36-134.5 4.2-15.7 9.1-33.8 10.8-40.4l3.2-11.8.5 462.8.5 462.9 118.3.3 118.2.2V2651h-190.4c-138.8 0-190.7.3-191.2 1.1-.3.6-1.4 4.1-2.4 7.8-1.7 6.3-8.6 31.3-20.5 73.6-4.6 16.5-22.9 81.9-38 136-1.8 6.6-5.9 21-9 32-3.1 11-10 36-15.5 55.5-5.4 19.5-14.9 53.5-21 75.5-6.2 22-12 42.9-13 46.5-1 3.6-4.1 14.8-7 25-2.9 10.2-5.6 19.8-6 21.5-.4 1.6-3.1 11.3-6 21.5s-8.7 31.1-13 46.5c-17.1 61.5-21.3 76.3-30 107.5-5 17.9-11.3 40.4-14 50-5.1 18.6-10.3 37-22.4 80-4.1 14.6-7.6 25.8-7.9 25-.3-.8-4.2-14.3-8.6-30-4.4-15.7-12.7-45.2-18.5-65.5-5.7-20.4-14.5-51.6-19.6-69.5-8.3-29.6-13.5-48-32.5-115-9.1-32-18.6-65.8-24-85-2.5-9.1-8.4-29.8-13-46-7.8-27.4-13-46.1-27.1-96-3.1-10.7-7.9-28.1-10.9-38.5-5.9-20.8-14.9-52.8-25.1-88.8-3.6-12.7-10.3-36.5-14.9-52.7-4.6-16.2-10.9-38.5-14-49.5-14.8-52.6-17.7-63.2-18.4-65.5l-.8-2.5-190.2-.3c-151.6-.2-190.3 0-190.6 1zM714 4351.6v183.5l87.8-.4c84.4-.3 88.1-.4 98.7-2.5 47.4-9.1 79-32.9 100.1-75 16.3-32.9 23.4-75.1 20.5-122.4-2.3-38.2-7.5-61.2-19.5-86.4-20.4-42.7-53.6-69.3-95.6-76.8-17.8-3.2-30-3.6-110.6-3.6H714v183.6zm153-119.5c23.6 2.1 39.2 8.8 51.4 22 18.3 19.7 25.6 47.5 25.6 97.4 0 41-4.6 66.6-15.8 87.9-9.1 17.5-27.5 28.6-52.2 31.6-4.7.6-26.4 1.3-48.2 1.7l-39.8.6v-243.5l33.8.6c18.5.4 38.9 1.1 45.2 1.7zM2937 4233c0 35.7-.3 65-.8 65-.4 0-1.3-.9-2-2-.6-1.1-5.6-5.6-10.9-10-10.7-8.9-26.9-17.6-38.3-20.6-8.6-2.2-33.7-3-43.9-1.4-39.6 6.3-71.5 34.4-84.6 74.5-6.3 19.3-8.5 35.2-8.5 62 0 28 2.4 45.2 9 64 12.8 36.4 40.3 64.1 73.5 74.1 7.3 2.1 11.7 2.7 23.1 3.1 19.3.7 29.3-1.2 45.7-8.6 12.8-5.8 27.2-17.2 38.5-30.5l4.2-4.9v37.3h66v-367h-71v65zm-45.2 86c13.7 3.2 27.9 14.9 34.6 28.5 12.4 24.9 13.8 74.1 3 100.9-6.7 16.6-21 30.5-36.3 35-7.1 2.1-22 2.1-29.2 0-16.9-4.9-31.2-19.3-37.3-37.5-7.2-21.5-8.4-58.9-2.6-81.3 3.4-13.2 8.3-22.1 16.9-30.7 11.7-11.7 21.3-15.8 37.1-15.8 5.2 0 11.4.4 13.8.9zM2366 4183.4c-8 4.6-20.2 11.7-27.1 15.7-6.9 4.1-16.2 9.4-20.7 11.9l-8.1 4.5-.1 26.7v26.8h-32v56h32v57.2c.1 96.1 1.3 113.4 8.9 130.3 5.5 12.2 19.3 22.4 36.6 27.1 9.2 2.6 36.8 3.1 49.8.9 9.4-1.6 28.3-6.8 29.9-8.3.6-.6-5-54.2-5.7-55-.2-.2-4.1.9-8.7 2.4-5.6 1.8-11.2 2.8-17.3 3.1-8.2.4-9.3.3-12.4-1.9-5.5-3.7-7.4-7.1-8.2-14.6-.5-3.7-.8-37-.8-74l-.1-67.2h48v-56h-48v-47c0-25.9-.3-47-.8-47-.4 0-7.3 3.8-15.2 8.4zM3147.5 4175.9c-.6.5-6.8 4.2-14 8.4-7.1 4.1-22.2 12.8-33.5 19.3l-20.5 11.9-.3 26.8-.2 26.7h-32v56.5l16-.3 16-.3v57.3c.1 76.9 1.1 104.2 4.4 116.9 2.7 10.9 5.3 16.5 10.3 22.7 6.7 8.2 20.7 15.7 35.2 18.8 9.2 1.9 34.2 1.8 46.2-.2 8.7-1.5 25.8-6.4 28.5-8.1.9-.6.4-7.8-1.8-27.8-1.7-14.9-3.1-27.1-3.3-27.3-.2-.2-4.1.9-8.7 2.4-11 3.7-26 4.1-30.4.8-4.7-3.4-6.8-7.1-7.5-13.2-.4-3.1-.8-36.4-.8-74l-.1-68.2h48v-56h-48v-47c0-48-.1-49.3-3.5-46.1zM1162 4263.7c-40.1 4.3-65.6 20.6-81.2 51.8-3.4 6.7-9.4 23.4-8.7 23.9.7.4 61.4 11.7 62.9 11.6.9 0 3.2-3.6 5.7-8.8 8.8-18.6 19-24.2 43.8-24.2 32.7 0 43.5 8.3 45.2 34.7l.6 9.1-9.9 3.2c-12.1 3.9-32.6 8.8-53.9 12.9-55.8 10.9-77.5 21.8-91.8 46.2-11.3 19.2-13 49-4 70.3 9.2 22 28 37.8 52.9 44.6 10 2.8 36.6 3.9 48.3 2 20.4-3.3 41.8-13.7 57.6-28.2 3.1-2.8 5.7-4.9 5.9-4.7.2.2 2.3 6.4 4.5 13.6l4.2 13.3h70.8l-3.4-8c-4.8-11.2-8.4-23-10.3-34-1.4-8.2-1.6-19.4-1.7-81-.1-69.8-.5-80.2-3.5-93.5-4.5-20-15.6-33.2-36.5-43.6-18.2-9-36.4-12-71.3-11.7-12.5 0-24.3.3-26.2.5zm67.7 164.1c-.4 10.4-1.2 21.3-1.8 24.3-3.6 16.8-17.4 30.6-36.6 36.5-7.2 2.3-9.6 2.6-18.5 2.2-8.8-.3-11.1-.8-16-3.2-20.4-10.2-27.1-34.7-13.6-50 7.5-8.6 14.9-11.5 49.8-19.6 11.8-2.7 24.4-5.8 28-6.9 3.6-1 7.1-1.9 7.9-2 1.2-.1 1.3 2.9.8 18.7zM1475.7 4264.5c-14.9 4.1-27 14.6-41 35.5l-3.7 5.5V4269h-66v266h71v-34.8c.1-49.6 1.7-104.6 3.4-119.4 4.5-36.9 18.2-53.8 43.6-53.8 9.2 0 16.1 1.9 25.9 7.1 4 2.2 7.5 3.8 7.6 3.7.1-.2 1.1-3 2.3-6.3 1.1-3.3 6-16.9 10.7-30.3 4.7-13.3 8.3-24.7 7.9-25.3-1.3-2.1-17.1-8.9-25.5-10.9-9.9-2.3-28.5-2.6-36.2-.5zM1691.2 4264.1c-19.9 3.5-43.4 17.1-58.1 33.6l-5.1 5.7V4269h-66v266h71v-69.3c0-69.4.8-91.8 3.6-105.7 1.9-9.1 7.3-20.7 12.2-26.3 5.1-5.6 14.3-11.3 22-13.7 8-2.5 21.6-2.7 29.3-.4 7.2 2.1 14.8 9.6 17.7 17.4 4 10.9 4.4 19.8 4.9 110.7l.6 87.3h70.6l.4-80.8c.4-69.4.6-81.8 2-88.6 4.9-23.6 12.6-35 29.6-43.4 7.4-3.6 7.7-3.7 19.5-3.7 11.2 0 12.5.2 17.2 2.7 11.2 5.9 16.3 15.4 18.4 34.3.6 5.3 1 44 1 94.2v85.3h71.1l-.4-101.8c-.3-93.1-.5-102.3-2.1-109.2-3.9-16.4-9.7-27-21.2-38.6-6.9-7.1-9.5-8.9-18.5-13.2-15.5-7.5-21.8-8.7-43.9-8.7-21.5 0-25.7.9-41.5 8.4-12.1 5.8-24 14.6-33.4 24.7l-6.9 7.6-4.3-6.3c-11-16.3-26.1-27.1-45.5-32.5-7-1.9-35.8-2.8-44.2-1.3zM2091.5 4264.1c-29.7 4-51.2 14.7-66.1 32.8-11.7 14.1-16.8 28.6-16.8 47.6 0 14.9 1.4 21.5 6.9 33 7.2 15 19.8 27.1 36 34.5 16.6 7.7 47.2 17.1 81 24.9 31.9 7.4 37.6 9.7 41.3 17.1 7.7 15.3-3.8 30.8-26.6 35.5-9.6 2-31.6 2-40 0-17.6-4.2-29.5-15-35.2-32.1-1.2-3.5-2.7-6.4-3.3-6.4-.7-.1-16.6 2.3-35.4 5.2-38.5 5.8-35.6 4.6-32.3 14.3 8.7 25.3 29.2 47.5 54.6 59.1 18.6 8.5 34.8 11.5 65.2 12.1 32.5.7 50.7-2 71.9-10.9 23.1-9.6 43.7-31.2 51-53.3 3.5-10.8 4.4-32.4 1.8-44.1-3.3-15-13.1-29.5-25.6-38.1-14.7-10.1-39.4-19.4-72.9-27.4-32.8-7.8-54.4-14.1-62.1-18-2-1-5-3.4-6.7-5.4-2.7-3-3.2-4.4-3.2-8.6 0-10.7 7.1-17 23.3-20.3 10.1-2.1 34.1-2.2 42-.1 13.9 3.6 23.2 11.1 28.2 22.7 1.8 4.1 3.6 6.8 4.5 6.8.8 0 15.8-2.5 33.3-5.7l31.8-5.7-.6-3.4c-1.4-7.4-9.6-23.6-16.4-32.2-4.9-6.3-15.6-15.6-23.2-20.2-7.5-4.5-23.6-9.9-36.9-12.3-11.1-2.1-57.8-3-69.5-1.4zM2557.5 4263.6c-20.3 2.8-32.6 6.3-44.5 12.5-16 8.3-29.1 22.5-37.5 40.4-4.1 8.7-9.1 22.4-8.4 22.9.6.4 61.3 11.6 62.9 11.6.9 0 3.2-3.6 5.7-8.8 8.7-18.5 19-24.2 43.4-24.2 33 0 43.9 8.2 45.6 34.6l.6 9.1-11.4 3.7c-12.2 3.9-33 8.8-54.9 13-18.9 3.6-38.1 8.8-49.8 13.4-23.4 9.2-38.8 24.9-46 47-3.4 10.5-4.2 29.2-1.8 41.2 6 29.4 26.7 50.7 57.2 59 11.3 3.1 38.3 3.9 50.7 1.6 20.4-3.9 42-15 56.5-28.9 3.5-3.5 4.4-3.9 5.2-2.7.5.8 1 2 1 2.7 0 .6 1.6 6.1 3.6 12.2l3.6 11.1h35.4c19.5 0 35.4-.2 35.4-.4s-1.5-3.6-3.4-7.7c-4.6-10-8.4-22.4-10.4-33.9-1.4-8.2-1.6-19.4-1.7-81-.1-72.8-.5-80.9-4.2-96-4.3-17.9-15-30.5-34.3-40.4-18.2-9.4-31.6-11.8-68-12.1-15.1-.2-28.8-.1-30.5.1zm67.2 163.6c-.7 21-1.8 28.1-5.5 35.8-5.4 10.9-19.4 21.7-34 26-10.4 3.2-25.2 2.6-33.2-1.3-20.9-10-27.5-35.6-13.1-51 7.6-8.1 14.3-10.7 49.5-18.7 12.2-2.8 25-5.9 28.6-7 3.6-1 6.9-1.9 7.4-1.9.5-.1.7 7.4.3 18.1z"/></svg>