<svg xmlns="http://www.w3.org/2000/svg" viewBox="0 0 836.9 342.25"><defs><style>.cls-1{fill:#939598}</style></defs><g id="Ebene_2" data-name="Ebene 2"><g id="Ebene_1-2" data-name="Ebene 1"><path d="M32.76 171.25h2.13a44.25 44.25 0 0 1 16.51-15.58 48.28 48.28 0 0 1 23.71-5.73 54.42 54.42 0 0 1 21.58 4A39.55 39.55 0 0 1 112 165.26a50 50 0 0 1 9.06 17.58 79.54 79.54 0 0 1 3.06 22.78v79.11H89.23v-74.86q0-14.12-6.26-20.91t-18.25-6.79a25.44 25.44 0 0 0-12.65 3.06 29.49 29.49 0 0 0-9.32 8.26 37.36 37.36 0 0 0-5.86 12.25 55.08 55.08 0 0 0-2 15v63.93H0V154.2h32.76zM276.48 253.29a73.13 73.13 0 0 1-24.37 25.84Q236.79 289 214.68 289a71.87 71.87 0 0 1-27.57-5.19 65.77 65.77 0 0 1-36.49-36.49 72.58 72.58 0 0 1-5.19-27.83 71.37 71.37 0 0 1 5.06-26.77A67.54 67.54 0 0 1 186 155.53a65.56 65.56 0 0 1 27.3-5.59q15.71 0 28 5.19a57.1 57.1 0 0 1 20.51 14.39 61.94 61.94 0 0 1 12.52 21.71 83.87 83.87 0 0 1 4.26 27.17v3.2a17.7 17.7 0 0 0-.27 2.93 15 15 0 0 0-.27 2.93h-98.26a36.6 36.6 0 0 0 4.39 13.72 33.15 33.15 0 0 0 8.26 9.59 32 32 0 0 0 10.79 5.59 41.94 41.94 0 0 0 12 1.73q12 0 19.84-5.46a39.85 39.85 0 0 0 12.39-13.72zm-31.7-50.61a22.65 22.65 0 0 0-2.26-7.72 27.36 27.36 0 0 0-5.86-8 30.74 30.74 0 0 0-9.59-6.13 35.44 35.44 0 0 0-13.72-2.4 32 32 0 0 0-19.71 6.39q-8.53 6.39-12 17.85zM311.37 184h-22.9v-29.8h22.91v-40h34.89v40h32V184h-32v52.15a37.65 37.65 0 0 0 .93 8.65 14 14 0 0 0 3.59 6.73q3.73 4.39 10.65 4.39a19.41 19.41 0 0 0 12.25-3.46l9.86 30.63a57.8 57.8 0 0 1-13.19 4.4 77.08 77.08 0 0 1-15.57 1.51 47.62 47.62 0 0 1-17.71-3.12 37.68 37.68 0 0 1-13.18-8.57q-12.52-12.24-12.52-34.8zM526.32 251.42a72.84 72.84 0 0 1-23.84 27Q487.16 289 464.26 289a72.59 72.59 0 0 1-27.83-5.19 64.8 64.8 0 0 1-21.84-14.52 67.32 67.32 0 0 1-14.38-22 72.58 72.58 0 0 1-5.21-27.83 73.63 73.63 0 0 1 5.19-28 64.56 64.56 0 0 1 36.22-36.36 72.64 72.64 0 0 1 27.83-5.19q22.64 0 38.09 10.39A61.56 61.56 0 0 1 525 187.23l-32 13.32a34.38 34.38 0 0 0-11.59-13.72q-7.06-4.66-17.71-4.66a32.4 32.4 0 0 0-13.05 2.66 33.54 33.54 0 0 0-10.79 7.46 34.1 34.1 0 0 0-7.3 11.71 46.13 46.13 0 0 0 0 30.9 34.1 34.1 0 0 0 7.32 11.72 33.49 33.49 0 0 0 10.79 7.46 32.35 32.35 0 0 0 13.05 2.67q10.92 0 18.51-4.93a34.4 34.4 0 0 0 12.12-14.25zM637.93 267.67h-2.13a44.21 44.21 0 0 1-16.51 15.58 48.29 48.29 0 0 1-23.71 5.75q-24.77 0-36.89-15.18t-12.12-40.48V154.2h34.89V229q0 14.12 6.26 20.91t18.28 6.84a25.42 25.42 0 0 0 12.65-3.06 29.56 29.56 0 0 0 9.32-8.26 37.36 37.36 0 0 0 5.86-12.25 55 55 0 0 0 2-15V154.2h34.89v130.52h-32.79zM699.46 154.2h32.76v15.72h2.13q4.79-8.25 14.92-14.12t25-5.86a56.55 56.55 0 0 1 23.84 5.19 63.79 63.79 0 0 1 20 14.39 68.34 68.34 0 0 1 13.72 22 79.82 79.82 0 0 1 0 55.94 68.36 68.36 0 0 1-13.72 22 63.78 63.78 0 0 1-20 14.38A56.51 56.51 0 0 1 774.3 289q-14.92 0-25-5.86T734.35 269h-2.13l2.13 18.64v54.6h-34.89zm67.66 102.55a33.32 33.32 0 0 0 13.19-2.67 34.69 34.69 0 0 0 11.05-7.46 36.47 36.47 0 0 0 7.72-11.72 42.2 42.2 0 0 0 0-30.9 36.47 36.47 0 0 0-7.72-11.72 34.75 34.75 0 0 0-11.05-7.46 33.37 33.37 0 0 0-13.19-2.66 34.89 34.89 0 0 0-13.18 2.53 33 33 0 0 0-11.07 7.31 36.34 36.34 0 0 0-7.72 11.72 43.61 43.61 0 0 0 0 31.43 36.37 36.37 0 0 0 7.72 11.72 33 33 0 0 0 11.05 7.32 34.78 34.78 0 0 0 13.19 2.56z" class="cls-1"/><text fill="#939598" font-family="ProductSans-Regular,Product Sans" font-size="94.01" transform="translate(.13 80.66)">h<tspan x="50.95" y="0" letter-spacing="0">ost</tspan><tspan x="178.25" y="0" letter-spacing="0">e</tspan><tspan x="229.11" y="0">d </tspan><tspan x="303.94" y="0" letter-spacing="-.02em">b</tspan><tspan x="356.21" y="0">y</tspan></text></g></g></svg>