<svg xmlns="http://www.w3.org/2000/svg" id="HEMS" viewBox="0 0 1440 1440"><defs><style>.cls-1{fill:#ef3a30}.cls-2{font-size:94.74px;font-family:Arial-BoldMT,Arial;font-weight:700}</style></defs><g id="Light-BG"><path id="Turm" d="M407.81 487.53V509a1.47 1.47 0 0 1-1.46 1.47h-1.06a1.46 1.46 0 0 1-1.46-1.45c-.06-27.33 0-62.63-.08-89.38a64.66 64.66 0 0 0-1-12.76c-2-9.54-10.26-16.6-19.09-16.9-9.35-.33-18 6.34-20.41 16.31A52.33 52.33 0 0 0 362 418.2c-.13 16.84 0 33.69-.1 50.53 0 2.15-.28 4.28-.49 6.42a1.46 1.46 0 0 1-1.41 1.33 1.45 1.45 0 0 1-1.49-1.34c-.2-2.36-.45-4.71-.45-7.07-.05-35.4 0-70.79-.09-106.2a45 45 0 0 0-1.27-11.82c-2.82-10.15-11.41-16.59-20.6-16-9.34.56-17.73 8.69-19.22 18.93a73 73 0 0 0-.4 10.25c0 35.13 0 70.23-.06 105.36a44.29 44.29 0 0 1-.84 6.81 1.45 1.45 0 0 1-1.51 1.24h-.18a1.45 1.45 0 0 1-1.39-1.36c-.16-2.45-.38-4.91-.38-7.36V304.33c-.08-15.57-8.67-26.5-20.78-26.4s-20.66 10.93-20.68 26.67q-.12 81 0 161.87v8.69a1.45 1.45 0 0 1-1.24 1.44h-.2a1.45 1.45 0 0 1-1.65-1.14 36.43 36.43 0 0 1-1.12-7.09q-.15-52.69-.07-105.34c0-2.86.08-5.74-.18-8.56-1-11.16-9.52-20-19.53-20.48s-19.12 7.38-21.05 18.74a71.85 71.85 0 0 0-.65 11.93q-.06 51.39 0 102.79c0 2.51-.21 5-.36 7.53a1.45 1.45 0 0 1-1.46 1.38h-.74a1.47 1.47 0 0 1-1.46-1.46v-6.33c0-17.41.08-34.84-.07-52.25a40 40 0 0 0-1.4-11c-3-10-11.76-16.1-21.13-15.26-9.06.82-17.12 8.77-18.47 18.63a82.45 82.45 0 0 0-.36 11.12v449.64c0 3.23.25 6.43.12 9.65a1.46 1.46 0 0 1-1.46 1.39h-1.52a1.46 1.46 0 0 1-1.46-1.41c-.09-2.54-.07-5-.07-7.59V541.75c0-42-.11-83.94.16-125.9a40.31 40.31 0 0 1 3.4-16.48c6.48-13.93 22.73-17.84 35.45-9.24l4.7 3.19a1.47 1.47 0 0 0 2.28-1.23c0-13.23-.29-25.11.09-37 .43-14 10.14-25.23 23.06-25.09 6.56.08 13.08 3.34 20.33 5.75a1.46 1.46 0 0 0 1.91-1.39c0-7.05-.08-15.21 0-23.37.09-5.41 0-10.9.95-16.2 2.21-12.5 11.7-20.69 23.48-20.95 12-.24 22.17 7.19 24.35 19.72 1.6 9.18 1 18.73 1.27 28.13.13 4.47.06 9 0 14.6a1.46 1.46 0 0 0 2.37 1.15c10-8 19.65-10.66 30.26-4.53 12.15 7 13.31 18.89 12.94 31.37-.28 8.89-.09 17.8-.06 27.78a1.47 1.47 0 0 0 2.13 1.31 13.49 13.49 0 0 0 2.55-1.5c8-6.62 16.92-8.46 26.33-4 9.95 4.75 14.67 13.41 14.76 24.24.08 25.17-.05 50.29-.03 75.42z"/><g id="Texte"><g id="HEMS-2" data-name="HEMS"><path id="S" d="M981.53 684.42l45.64-4.17q4.11 21.63 16.71 31.77t34 10.15q22.67 0 34.15-9t11.48-21.17a19.2 19.2 0 0 0-4.83-13.2q-4.85-5.45-16.88-9.47-8.23-2.68-37.55-9.55-37.73-8.8-52.93-21.63-21.39-18-21.39-44a53.88 53.88 0 0 1 10.07-31.23q10.07-14.55 29-22.15t45.71-7.61q43.74 0 65.84 18.05t23.22 48.18l-46.91 1.94q-3-16.86-12.91-24.24t-29.71-7.38q-20.45 0-32 7.9-7.44 5.07-7.45 13.58 0 7.75 7 13.27 8.87 7 43.1 14.62t50.62 15.74a63.94 63.94 0 0 1 25.67 22.23q9.27 14.1 9.27 34.83a61.75 61.75 0 0 1-11.09 35.21q-11.1 16.41-31.38 24.39t-50.54 8q-44.06 0-67.66-19.17t-28.25-55.89z" class="cls-1"/><path id="M" d="M722.46 755.58V536.89h70.2l42.14 149.17 41.68-149.17h70.35v218.69h-43.57V583.43l-46.11 172.15H812l-46-172.15v172.15z" class="cls-1"/><path id="E" d="M506.65 755.58V536.89h172.24v37H553.55v48.49h116.62v36.84H553.55v59.52h129.77v36.85z" class="cls-1"/><path id="H" d="M272.45 755.58V536.89h46.9V623h91.91v-86.11h46.9v218.69h-46.9V660h-91.91v95.62z" class="cls-1"/></g><text class="cls-2" transform="translate(180.42 1130.47)">Berufliches Gymnasium</text><text class="cls-2" transform="translate(180.42 1023.09)">Informationssystem</text><text font-family="Arial-BoldMT,Arial" font-size="94.56" font-weight="700" transform="translate(263.89 884.68)">Darmstadt</text></g></g></svg>